<?xml version="1.0" encoding="iso-8859-1"?>
<!-- Generator: Adobe Illustrator 19.0.0, SVG Export Plug-In . SVG Version: 6.00 Build 0)  -->
<svg version="1.1" id="Capa_1" xmlns="http://www.w3.org/2000/svg" xmlns:xlink="http://www.w3.org/1999/xlink" x="0px" y="0px"
	 viewBox="0 0 469.333 469.333" style="enable-background:new 0 0 469.333 469.333;" xml:space="preserve">
<g>
	<g>
		<g>
			<path d="M0,277.333V320c58.88,0,106.667,47.787,106.667,106.667h42.667C149.333,344.213,82.453,277.333,0,277.333z"/>
			<path d="M0,362.667v64h64C64,391.36,35.307,362.667,0,362.667z"/>
			<path d="M426.667,42.667h-384C19.093,42.667,0,61.76,0,85.333v64h42.667v-64h384V384H277.333v42.667h149.333
				c23.573,0,42.667-19.093,42.667-42.667V85.333C469.333,61.76,450.24,42.667,426.667,42.667z"/>
			<path d="M0,192v42.667c106.027,0,192,85.973,192,192h42.667C234.667,297.067,129.6,192,0,192z"/>
		</g>
	</g>
</g>
<g>
</g>
<g>
</g>
<g>
</g>
<g>
</g>
<g>
</g>
<g>
</g>
<g>
</g>
<g>
</g>
<g>
</g>
<g>
</g>
<g>
</g>
<g>
</g>
<g>
</g>
<g>
</g>
<g>
</g>
</svg>
