<?xml version="1.0" encoding="iso-8859-1"?>
<!-- Generator: Adobe Illustrator 19.0.0, SVG Export Plug-In . SVG Version: 6.00 Build 0)  -->
<svg version="1.1" id="Capa_1" xmlns="http://www.w3.org/2000/svg" xmlns:xlink="http://www.w3.org/1999/xlink" x="0px" y="0px"
	 viewBox="0 0 512.047 512.047" style="enable-background:new 0 0 512.047 512.047;" xml:space="preserve">
<g>
	<g>
		<g>
			<path d="M96.001,128h288v80h32v-80h32c8.837-0.027,15.978-7.212,15.952-16.048c-0.008-2.484-0.594-4.933-1.712-7.152l-16-32
				c-2.711-5.38-8.215-8.782-14.24-8.8h-112V32c0-17.673-14.327-32-32-32h-96c-17.673,0-32,14.327-32,32v32h-112
				c-6.025,0.018-11.529,3.419-14.24,8.8l-16,32c-3.977,7.891-0.803,17.512,7.088,21.489c2.219,1.118,4.667,1.704,7.152,1.711h32
				v352c-0.484,8.207,2.208,16.285,7.52,22.56c6.436,6.501,15.346,9.937,24.48,9.44h112v-32h-112V128z M192.001,32h96v32h-96V32z"/>
			<path d="M256.001,160c-17.673,0-32,14.327-32,32v64h32V160z"/>
			<path d="M304.001,224h32v-64c-17.673,0-32,14.327-32,32V224z"/>
			<path d="M144.001,448c17.673,0,32-14.327,32-32V160c-17.673,0-32,14.327-32,32l0.96,224h-0.96V448z"/>
			<path d="M368.001,256c-70.692,0-128,57.308-128,128s57.308,128,128,128s128-57.308,128-128S438.694,256,368.001,256z
				 M368.001,480c-53.019,0-96-42.981-96-96s42.981-96,96-96s96,42.981,96,96S421.021,480,368.001,480z"/>
			<rect x="304.001" y="368" width="128" height="32"/>
		</g>
	</g>
</g>
<g>
</g>
<g>
</g>
<g>
</g>
<g>
</g>
<g>
</g>
<g>
</g>
<g>
</g>
<g>
</g>
<g>
</g>
<g>
</g>
<g>
</g>
<g>
</g>
<g>
</g>
<g>
</g>
<g>
</g>
</svg>
